Coordinates
version=1
nRows=4
nColumns=124
inDegrees=yes

Units are S.I. units (second, meters, Newtons, ...)
If the header above contains a line with 'inDegrees', this indicates whether rotational values are in degrees (yes) or radians (no).

endheader 
time	pelvis_tilt	pelvis_list	pelvis_rotation	pelvis_tx	pelvis_ty	pelvis_tz	hip_flexion_l	hip_adduction_l	hip_rotation_l	hip_flexion_r	hip_adduction_r	hip_rotation_r	knee_angle_l	knee_angle_r	ankle_angle_l	ankle_angle_r	subtalar_angle_l	subtalar_angle_r	mtp_angle_l	mtp_angle_r	lumbar_extension	lumbar_bending	lumbar_rotation	arm_flex_l	arm_add_l	arm_rot_l	arm_flex_r	arm_add_r	arm_rot_r	elbow_flex_l	elbow_flex_r	glut_med1_l/activation	glut_med2_l/activation	glut_med3_l/activation	glut_min1_l/activation	glut_min2_l/activation	glut_min3_l/activation	semimem_l/activation	semiten_l/activation	bifemlh_l/activation	bifemsh_l/activation	sar_l/activation	add_long_l/activation	add_brev_l/activation	add_mag1_l/activation	add_mag2_l/activation	add_mag3_l/activation	tfl_l/activation	pect_l/activation	grac_l/activation	glut_max1_l/activation	glut_max2_l/activation	glut_max3_l/activation	iliacus_l/activation	psoas_l/activation	quad_fem_l/activation	gem_l/activation	peri_l/activation	rect_fem_l/activation	vas_med_l/activation	vas_int_l/activation	vas_lat_l/activation	med_gas_l/activation	lat_gas_l/activation	soleus_l/activation	tib_post_l/activation	flex_dig_l/activation	flex_hal_l/activation	tib_ant_l/activation	per_brev_l/activation	per_long_l/activation	per_tert_l/activation	ext_dig_l/activation	ext_hal_l/activation	ercspn_l/activation	intobl_l/activation	extobl_l/activation	glut_med1_r/activation	glut_med2_r/activation	glut_med3_r/activation	glut_min1_r/activation	glut_min2_r/activation	glut_min3_r/activation	semimem_r/activation	semiten_r/activation	bifemlh_r/activation	bifemsh_r/activation	sar_r/activation	add_long_r/activation	add_brev_r/activation	add_mag1_r/activation	add_mag2_r/activation	add_mag3_r/activation	tfl_r/activation	pect_r/activation	grac_r/activation	glut_max1_r/activation	glut_max2_r/activation	glut_max3_r/activation	iliacus_r/activation	psoas_r/activation	quad_fem_r/activation	gem_r/activation	peri_r/activation	rect_fem_r/activation	vas_med_r/activation	vas_int_r/activation	vas_lat_r/activation	med_gas_r/activation	lat_gas_r/activation	soleus_r/activation	tib_post_r/activation	flex_dig_r/activation	flex_hal_r/activation	tib_ant_r/activation	per_brev_r/activation	per_long_r/activation	per_tert_r/activation	ext_dig_r/activation	ext_hal_r/activation	ercspn_r/activation	intobl_r/activation	extobl_r/activation	
          0.26982580	         -7.93931138	         -0.58758307	          4.88074454	          0.36149385	          0.92615571	          0.00349329	         20.53366765	          0.84169460	         -2.81998433	         10.79972373	          4.70867798	          7.33828068	        -52.38307905	        -11.23367292	         15.23085711	          9.32950580	          1.17485179	         -8.02746356	          2.07109637	          4.29318021	          2.91250306	          1.58395219	         -0.49811440	         -3.72015133	        -13.44997726	         15.87596048	         -3.94109149	        -13.44985987	         19.06956011	         67.77892009	          8.11648561	          0.05000025	          0.05000028	          0.05000026	          0.05000164	          0.05000128	          0.05000090	          0.05000052	          0.05000019	          0.05000010	          0.27087258	          0.31202402	          0.18150105	          0.19838605	          0.05000222	          0.05000086	          0.05000018	          0.49123798	          0.31651219	          0.10286038	          0.05000039	          0.05000017	          0.05000014	          0.14417429	          0.15623544	          0.13709784	          0.20875912	          0.05000117	          0.05000281	          0.05000043	          0.05000040	          0.05000029	          0.05000012	          0.05000025	          0.05000004	          0.05000034	          0.05000173	          0.05000122	          0.41400845	          0.20867339	          0.08350309	          0.55578094	          0.46390750	          0.54221007	          0.09519048	          0.06546999	          0.05877283	          0.36815384	          0.28507906	          0.27908959	          0.45724452	          0.46742926	          0.44899831	          0.07041001	          0.06564733	          0.05934633	          0.05000079	          0.05000193	          0.05000042	          0.05000082	          0.05000370	          0.05001357	          0.08699426	          0.10251051	          0.05000225	          0.05000191	          0.17014962	          0.09945777	          0.06776106	          0.05000026	          0.05000026	          0.05000114	          0.05000558	          0.28117782	          0.10391461	          0.11152618	          0.11027055	          0.09088195	          0.24704277	          0.23634353	          0.05000772	          0.27653250	          0.09052526	          0.06849794	          0.06758478	          0.05000770	          0.05000678	          0.05001289	          0.05000475	          0.05001547	          0.05000025	          0.05000027	          0.05000025	
          0.29231128	         -7.93515547	         -0.01630200	          3.90128767	          0.38779813	          0.92789176	          0.00417765	         23.67592970	          1.49321250	         -3.42094397	          7.96855303	          4.13231297	          8.14954099	        -50.20562038	         -9.11677626	         15.94724116	          8.88455632	          0.26128458	         -7.49708208	          1.48639593	          5.67186840	          2.74707387	          1.41396382	         -0.28809852	         -3.17433801	        -13.44976526	         15.49168059	         -2.04824310	        -13.44981534	         19.37393058	         60.98732892	         10.77203214	          0.05000025	          0.05000030	          0.05000029	          0.05000152	          0.05000128	          0.05000095	          0.05000022	          0.05000017	          0.05000009	          0.19703303	          0.34205252	          0.20830236	          0.19478481	          0.05000200	          0.05000079	          0.05000018	          0.44194660	          0.27724932	          0.07482104	          0.05000037	          0.05000017	          0.05000015	          0.16529134	          0.17718414	          0.17597531	          0.23995208	          0.05000127	          0.05000066	          0.05000043	          0.05000038	          0.05000024	          0.05000016	          0.05000035	          0.05000007	          0.05000049	          0.05000236	          0.05000176	          0.42119321	          0.21342857	          0.10282658	          0.45371090	          0.45626815	          0.45749331	          0.09041061	          0.06929386	          0.06887634	          0.33031229	          0.25553010	          0.25313177	          0.43730999	          0.44204433	          0.42613833	          0.06440929	          0.05755806	          0.05194007	          0.05000100	          0.05000242	          0.05000042	          0.05000082	          0.05000332	          0.05000846	          0.06872330	          0.17715679	          0.05000216	          0.05000198	          0.15283407	          0.09282348	          0.05205542	          0.05000030	          0.05000030	          0.05000110	          0.05000599	          0.30044077	          0.08998019	          0.08655865	          0.08613493	          0.07289264	          0.29624881	          0.30104189	          0.05000099	          0.28475682	          0.10234919	          0.06941893	          0.06808210	          0.05000795	          0.05000403	          0.05001735	          0.05001155	          0.05002304	          0.05000023	          0.05000028	          0.05000026	
          0.31479676	         -7.93588767	          0.54112474	          2.86391872	          0.41425716	          0.92860142	          0.00480717	         26.47182235	          2.02769757	         -3.96936799	          5.13833823	          3.47421631	          8.88261495	        -47.02335064	         -6.96886972	         16.06096026	          8.44817957	         -0.57562747	         -6.93477572	          1.07534831	          7.13418871	          2.60402685	          1.25294875	         -0.07849973	         -2.53503312	        -13.44994939	         15.32942218	         -0.36679811	        -13.44988074	         19.28722761	         53.77585899	         14.29564216	          0.05000026	          0.05000033	          0.05000034	          0.05000146	          0.05000130	          0.05000102	          0.05000012	          0.05000016	          0.05000008	          0.14332206	          0.37736971	          0.23875749	          0.19075039	          0.05000184	          0.05000076	          0.05000019	          0.39688488	          0.23748268	          0.05442534	          0.05000038	          0.05000018	          0.05000016	          0.19407902	          0.20223130	          0.21623420	          0.25556174	          0.05000137	          0.05000040	          0.05000034	          0.05000029	          0.05000017	          0.05000023	          0.05000047	          0.05000013	          0.05000075	          0.05000310	          0.05000255	          0.42396001	          0.21656144	          0.11837196	          0.33869070	          0.46582587	          0.36226575	          0.08815687	          0.07792172	          0.07273149	          0.30076772	          0.22761628	          0.22574999	          0.42571480	          0.42899652	          0.41734881	          0.05525250	          0.05004503	          0.05000402	          0.05000152	          0.05000387	          0.05000045	          0.05000084	          0.05000283	          0.05000674	          0.05001074	          0.24520232	          0.05000230	          0.05000221	          0.12016126	          0.07123844	          0.05000401	          0.05000043	          0.05000043	          0.05000107	          0.05000662	          0.32340962	          0.06545435	          0.06296805	          0.06265937	          0.05302629	          0.34647138	          0.36747710	          0.05000091	          0.29404258	          0.11778510	          0.07839049	          0.08303708	          0.05000489	          0.05000247	          0.05001364	          0.05000724	          0.05002400	          0.05000023	          0.05000028	          0.05000026	
          0.33728225	         -7.94297706	          1.07752032	          1.79103777	          0.44097379	          0.92818829	          0.00537255	         28.91635083	          2.44636165	         -4.46339352	          2.33105707	          2.74821734	          9.53209427	        -43.02117031	         -4.85370269	         15.73002080	          8.06674487	         -1.31147034	         -6.33934002	          0.78916681	          8.66439587	          2.48585881	          1.09833867	          0.12990164	         -1.84693736	        -13.45038436	         15.44016608	          0.99334682	        -13.45001419	         18.79568973	         46.29331111	         18.83283506	          0.05000028	          0.05000036	          0.05000038	          0.05000147	          0.05000135	          0.05000111	          0.05000008	          0.05000015	          0.05000008	          0.10425264	          0.39697291	          0.26125327	          0.14073982	          0.05000185	          0.05000077	          0.05000021	          0.35288255	          0.19558447	          0.05000110	          0.05000040	          0.05000020	          0.05000018	          0.22000577	          0.22192012	          0.21867245	          0.27573786	          0.05000169	          0.05000036	          0.05000035	          0.05000030	          0.05000015	          0.05000023	          0.05000049	          0.05000018	          0.05000090	          0.05000373	          0.05000313	          0.42159696	          0.21436362	          0.12825075	          0.26882871	          0.48982218	          0.27582590	          0.09093730	          0.08643162	          0.07208009	          0.28229399	          0.21892859	          0.22292936	          0.45211084	          0.45426629	          0.41642973	          0.05000729	          0.05000434	          0.05000183	          0.16978825	          0.05001711	          0.05000044	          0.05000071	          0.05000205	          0.05000464	          0.05000263	          0.29788727	          0.05000223	          0.05000209	          0.09725616	          0.05185836	          0.05000187	          0.05000066	          0.05000056	          0.05000108	          0.05000876	          0.33303631	          0.05000443	          0.05000616	          0.05000551	          0.05000432	          0.39735121	          0.43438775	          0.05002299	          0.30299903	          0.12958508	          0.08368424	          0.09363254	          0.05000430	          0.05000350	          0.05001127	          0.06274215	          0.05001872	          0.05000023	          0.05000027	          0.05000025	
